<?xml version="1.0" encoding="UTF-8"?><svg id="Layer_2" xmlns="http://www.w3.org/2000/svg" viewBox="0 0 191.83 170.53"><defs><style>.cls-1{fill:#fff;stroke-width:0px;}</style></defs><g id="Layer_1-2"><g id="gjlOCr.tif"><path class="cls-1" d="m127.92,106.6c6.8-.27,12.4-2.93,16.63-8.18,3.1-3.84,4.65-8.32,4.65-13.23,0-9.7-7.75-20.89-21.28-21.34v-.95c0-15.4-.02-30.8.01-46.19.01-4.41,1.37-8.42,4.4-11.69,2.34-2.53,5.34-3.98,8.72-4.62,1.19-.22,2.41-.36,3.61-.37,10.16-.03,20.31-.04,30.47,0,4.46.01,8.47,1.41,11.76,4.45,2.43,2.25,3.86,5.15,4.5,8.39.25,1.27.41,2.58.41,3.87.02,45.69.02,91.38.01,137.07,0,4.54-1.4,8.6-4.54,11.89-2.32,2.44-5.3,3.86-8.62,4.46-1.19.21-2.41.36-3.61.36-10.1.03-20.2.03-30.29,0-4.55-.01-8.64-1.4-11.99-4.54-2.14-2.01-3.52-4.55-4.17-7.4-.4-1.77-.65-3.62-.65-5.44-.05-15.1-.03-30.2-.03-45.3,0-.38,0-.76,0-1.24Zm-36.81-30.73c2.31,5.23,5.52,9.77,10.02,13.35,4.19,3.33,8.95,5.37,14.23,6.22,4.38.7,8.8.55,13.2.4,5.84-.2,9.29-4.42,9.86-9.06.76-6.16-3.21-11.69-9.43-12.02-2.54-.14-5.09,0-7.63-.15-1.51-.09-3.08-.33-4.5-.84-3.08-1.1-5.04-3.45-6.24-6.42-1.43-3.51-2.86-7-4.87-10.24-5.03-8.11-12.02-13.94-20.9-17.27-6.28-2.36-12.74-4.22-19.16-6.19-6.32-1.94-12.75-2.08-19.22-.77-7.04,1.43-13.24,4.54-18.55,9.37-2.8,2.55-5.41,5.31-8.14,7.93-2.84,2.72-4.15,5.98-3.7,9.91.29,2.46,1.24,4.7,3.09,6.32,4.65,4.06,11.16,3.74,15.56-.63,2.33-2.32,4.63-4.67,6.99-6.95,1.06-1.03,2.16-2.04,3.37-2.87,3.33-2.3,7.1-2.9,11.14-2.63-.1.33-.17.62-.26.89-1.48,4.5-2.97,8.99-4.43,13.49-2.02,6.21-4.11,12.41-6.01,18.66-1.07,3.51-.99,7.12-.02,10.68,1.49,5.48,4.83,9.53,9.6,12.49,9.23,5.72,18.45,11.46,27.67,17.19.27.17.53.36.79.54-.08.31-.15.56-.22.82-2.55,8.73-5.08,17.46-7.65,26.19-.68,2.31-1.23,4.6-.99,7.05.4,4.08,3.78,8.09,7.8,8.91,5.46,1.12,11.37-1.26,13.17-7.86,3.01-11.04,6.12-22.06,9.14-33.1.42-1.53.79-3.14.73-4.7-.19-5.91-2.99-10.46-7.92-13.61-5.78-3.69-11.69-7.2-17.54-10.79-.29-.18-.57-.38-.87-.58,3.45-9.14,6.86-18.18,10.33-27.38.56,1.32,1.04,2.49,1.55,3.65Zm-54.5,27.83c-2.01,4.32-3.98,8.49-5.89,12.68-.32.71-.71.91-1.46.91-6.1-.03-12.2-.03-18.3-.01-4.22,0-7.6,1.57-9.72,5.37-1.19,2.13-1.42,4.44-1.14,6.8.46,3.87,2.48,6.69,6.08,8.18,1.31.54,2.81.86,4.22.86,8.29.03,16.58.07,24.86-.17,4.47-.13,8.19-2.21,10.92-5.82,2.71-3.58,3.93-7.92,6.07-11.89-7.09-3.93-12.43-9.37-15.64-16.92ZM90.59,31.85c8.81-.03,15.73-6.49,15.9-15.51.18-9.64-7.08-16.2-15.87-16.25-8.75-.04-15.97,6.58-15.93,15.82-.1,9.28,7.11,15.96,15.9,15.94Z"/></g></g></svg>